<?xml version="1.0" encoding="UTF-8"?>
<svg xmlns="http://www.w3.org/2000/svg" xmlns:xlink="http://www.w3.org/1999/xlink" viewBox="0 0 50 50" width="50px" height="50px">
<g id="surface28730219">
<path style=" stroke:none;fill-rule:nonzero;fill:rgb(20.392157%,59.607846%,85.882354%);fill-opacity:1;" d="M 25 0.0390625 C 24.800781 0.0390625 24.605469 0.132812 24.53125 0.332031 L 16.566406 21.578125 C 16.332031 22.113281 16.113281 22.636719 15.902344 23.144531 C 14.28125 27.0625 13.214844 29.65625 7.605469 28.480469 C 7.425781 28.445312 7.238281 28.507812 7.121094 28.648438 C 7.003906 28.789062 6.972656 28.980469 7.035156 29.152344 C 7.601562 30.601562 8.773438 33.613281 7.304688 37.355469 C 7.230469 37.542969 7.277344 37.753906 7.421875 37.894531 C 7.566406 38.035156 7.78125 38.074219 7.964844 37.996094 C 8.191406 37.902344 8.492188 37.851562 8.816406 37.851562 C 9.726562 37.851562 10.640625 38.214844 11.144531 38.785156 C 12.320312 40.105469 16.625 43.714844 22.378906 44.527344 C 22.402344 44.53125 22.425781 44.535156 22.445312 44.535156 C 22.5625 44.535156 22.675781 44.496094 22.765625 44.417969 C 22.875 44.328125 22.941406 44.195312 22.945312 44.054688 C 22.960938 43.742188 22.96875 43.4375 22.964844 43.292969 C 22.957031 43.097656 22.835938 42.921875 22.652344 42.847656 C 19.019531 41.359375 16.113281 36.765625 17.742188 32.578125 C 18.492188 30.863281 22.644531 19.890625 24.640625 14.617188 L 25 13.664062 L 25.359375 14.617188 C 27.355469 19.886719 31.507812 30.863281 32.246094 32.558594 C 33.890625 36.777344 31.023438 41.359375 27.421875 42.835938 C 27.234375 42.910156 27.109375 43.171875 27.109375 43.375 C 27.113281 43.699219 27.113281 43.785156 27.128906 44.050781 C 27.136719 44.191406 27.203125 44.320312 27.308594 44.410156 C 27.417969 44.496094 27.558594 44.535156 27.699219 44.519531 C 33.386719 43.710938 37.683594 40.101562 38.855469 38.777344 C 39.359375 38.210938 40.273438 37.847656 41.183594 37.847656 C 41.511719 37.847656 41.8125 37.898438 42.035156 37.992188 C 42.222656 38.070312 42.433594 38.03125 42.578125 37.890625 C 42.726562 37.75 42.769531 37.535156 42.695312 37.347656 C 41.226562 33.609375 42.398438 30.597656 42.960938 29.148438 C 43.027344 28.980469 42.996094 28.785156 42.878906 28.644531 C 42.761719 28.507812 42.570312 28.441406 42.394531 28.480469 C 36.789062 29.652344 35.71875 27.058594 34.09375 23.140625 C 33.886719 22.632812 33.667969 22.109375 33.445312 21.601562 L 25.46875 0.332031 C 25.394531 0.132812 25.199219 0.0390625 25 0.0390625 Z M 7.464844 41.515625 C 7.101562 41.65625 6.945312 41.734375 6.628906 41.808594 C 6.628906 41.808594 13.363281 50.046875 25.074219 50.007812 C 37.011719 49.964844 43.371094 41.894531 43.371094 41.894531 C 43.15625 41.769531 43.003906 41.691406 42.742188 41.550781 C 36.316406 46.539062 27.496094 50.023438 25.035156 45.640625 C 23.699219 49.257812 15.292969 47.410156 7.464844 41.515625 Z M 7.464844 41.515625 "/>
</g>
</svg>
